<svg xmlns="http://www.w3.org/2000/svg" viewBox="0 0 48 48" fill="none">
  <circle cx="17" cy="16" r="5" fill="var(--wi-primary,#78909C)"/>
  <circle cx="24" cy="12" r="7" fill="var(--wi-primary,#78909C)"/>
  <circle cx="31" cy="16" r="5" fill="var(--wi-primary,#78909C)"/>
  <rect x="12" y="16" width="24" height="5" rx="2" fill="var(--wi-primary,#78909C)"/>
  <rect x="10" y="26" width="5" height="5" rx="1" fill="var(--wi-accent,#CFD8DC)" transform="rotate(15 12 28)"/>
  <rect x="20" y="29" width="5" height="5" rx="1" fill="var(--wi-accent,#CFD8DC)" transform="rotate(15 22 31)"/>
  <rect x="30" y="26" width="5" height="5" rx="1" fill="var(--wi-accent,#CFD8DC)" transform="rotate(15 32 28)"/>
  <rect x="13" y="37" width="5" height="5" rx="1" fill="var(--wi-accent,#CFD8DC)" transform="rotate(15 15 39)"/>
  <rect x="24" y="38" width="5" height="5" rx="1" fill="var(--wi-accent,#CFD8DC)" transform="rotate(15 26 40)"/>
  <rect x="35" y="37" width="5" height="5" rx="1" fill="var(--wi-accent,#CFD8DC)" transform="rotate(15 37 39)"/>
</svg>
