<svg xmlns="http://www.w3.org/2000/svg" viewBox="0 0 48 48" fill="none">
  <circle cx="17" cy="16" r="5" fill="var(--wi-primary,#90A4AE)"/>
  <circle cx="24" cy="12" r="7" fill="var(--wi-primary,#90A4AE)"/>
  <circle cx="31" cy="16" r="5" fill="var(--wi-primary,#90A4AE)"/>
  <rect x="12" y="16" width="24" height="5" rx="2" fill="var(--wi-primary,#90A4AE)"/>
  <g stroke="var(--wi-accent,#E1F5FE)" stroke-width="1.5" stroke-linecap="round">
    <path d="M10 24v6M7 27h6M8 25l4 4M8 29l4-4"/>
    <path d="M18 21v6M15 24h6M16 22l4 4M16 26l4-4"/>
    <path d="M26 24v6M23 27h6M24 25l4 4M24 29l4-4"/>
    <path d="M34 21v6M31 24h6M32 22l4 4M32 26l4-4"/>
    <path d="M14 33v6M11 36h6M12 34l4 4M12 38l4-4"/>
    <path d="M24 35v6M21 38h6M22 36l4 4M22 40l4-4"/>
    <path d="M34 33v6M31 36h6M32 34l4 4M32 38l4-4"/>
  </g>
</svg>
